<svg xmlns="http://www.w3.org/2000/svg" viewBox="0 0 64 64" role="img" aria-label="L'Atelier de la Séduction">
  <rect width="64" height="64" rx="14" fill="#7A2E3A"/>
  <path d="M27 9 L18 43 M27 9 L36 43 M20.5 30.5 H32.5 M15.5 43 H21 M33.5 43 H39" fill="none" stroke="#F7F1EC" stroke-width="4.6" stroke-linecap="round" stroke-linejoin="round"/>
  <path d="M47 15 C48.5 12.4 53 12 54.8 13.9 C56.6 15.8 56.2 18.7 54 20.1 C49.6 23 43.5 25.2 42.7 28.8 C41.9 32.6 45.6 36.4 50.4 36.4 C53.6 36.4 56.6 34.4 57 31.2" fill="none" stroke="#F7F1EC" stroke-width="4.6" stroke-linecap="round" stroke-linejoin="round"/>
  <path d="M27 4.5 L28.9 8 L27 11.5 L25.1 8 Z" fill="#C9A09A"/>
</svg>